<?xml version="1.0" encoding="utf-8"?>
<!-- Generator: Adobe Illustrator 24.0.2, SVG Export Plug-In . SVG Version: 6.00 Build 0)  -->
<svg version="1.0" id="Capa_1" xmlns="http://www.w3.org/2000/svg" xmlns:xlink="http://www.w3.org/1999/xlink" x="0px" y="0px"
	 viewBox="0 0 1800 1800" style="enable-background:new 0 0 1800 1800;" xml:space="preserve">
<g>
	<path d="M391.63,1163.35c0,146.31-73.16,219.47-219.47,219.47H99v-219.47h0c40.4,0,73.16-32.75,73.16-73.16V651.24h0
		c-40.4,0-73.16-32.75-73.16-73.16V431.77h877.89v219.47H391.63v146.32h438.95v219.47H391.63V1163.35z"/>
	<path d="M969.42,1163.35V431.77h144.73c41.28,0,74.74,33.46,74.74,74.74v656.84h292.63v-73.16H1701v73.16
		c0,146.31-73.16,219.47-219.47,219.47H896.27v-219.47H969.42z"/>
</g>
</svg>
